<mxfile host="app.diagrams.net" modified="2023-05-17T14:45:04.167Z" agent="Mozilla/5.0 (Macintosh; Intel Mac OS X 10_15_7) AppleWebKit/537.36 (KHTML, like Gecko) Chrome/113.0.0.0 Safari/537.36" etag="_2KZAJysU3J4qrz-5Apj" version="21.3.2" type="github">
  <diagram name="Page-1" id="kVahH93hqAcY3Mv-W6mx">
    <mxGraphModel dx="530" dy="328" grid="1" gridSize="10" guides="1" tooltips="1" connect="1" arrows="1" fold="1" page="1" pageScale="1" pageWidth="850" pageHeight="1100" math="0" shadow="0">
      <root>
        <mxCell id="0" />
        <mxCell id="1" parent="0" />
        <mxCell id="-Kr4DU12q8NC2Dy_L9c7-1" value="" style="rounded=0;whiteSpace=wrap;html=1;strokeWidth=1;" vertex="1" parent="1">
          <mxGeometry x="120" y="160" width="320" height="220" as="geometry" />
        </mxCell>
        <mxCell id="-Kr4DU12q8NC2Dy_L9c7-2" value="" style="rounded=0;whiteSpace=wrap;html=1;strokeWidth=2;shadow=1;" vertex="1" parent="1">
          <mxGeometry x="140" y="200" width="130" height="160" as="geometry" />
        </mxCell>
        <mxCell id="-Kr4DU12q8NC2Dy_L9c7-3" value="App" style="rounded=0;whiteSpace=wrap;html=1;strokeWidth=2;" vertex="1" parent="1">
          <mxGeometry x="140" y="200" width="130" height="20" as="geometry" />
        </mxCell>
        <mxCell id="-Kr4DU12q8NC2Dy_L9c7-22" style="edgeStyle=orthogonalEdgeStyle;rounded=0;orthogonalLoop=1;jettySize=auto;html=1;exitX=1;exitY=0.5;exitDx=0;exitDy=0;entryX=0;entryY=0.5;entryDx=0;entryDy=0;strokeColor=#007FFF;" edge="1" parent="1" source="-Kr4DU12q8NC2Dy_L9c7-5" target="-Kr4DU12q8NC2Dy_L9c7-10">
          <mxGeometry relative="1" as="geometry" />
        </mxCell>
        <mxCell id="-Kr4DU12q8NC2Dy_L9c7-5" value="&lt;font color=&quot;#007fff&quot;&gt;&amp;nbsp; &amp;nbsp; &amp;nbsp; &amp;nbsp; &amp;nbsp;opentelemetry&lt;br&gt;&amp;nbsp; &amp;nbsp; &amp;nbsp;metric sdk&lt;/font&gt;" style="rounded=0;whiteSpace=wrap;html=1;strokeColor=#007FFF;strokeWidth=1;" vertex="1" parent="1">
          <mxGeometry x="160" y="240" width="110" height="40" as="geometry" />
        </mxCell>
        <mxCell id="-Kr4DU12q8NC2Dy_L9c7-6" style="edgeStyle=orthogonalEdgeStyle;rounded=0;orthogonalLoop=1;jettySize=auto;html=1;exitX=1;exitY=0.5;exitDx=0;exitDy=0;entryX=0;entryY=0.5;entryDx=0;entryDy=0;strokeColor=#007FFF;" edge="1" parent="1" source="-Kr4DU12q8NC2Dy_L9c7-7" target="-Kr4DU12q8NC2Dy_L9c7-10">
          <mxGeometry relative="1" as="geometry">
            <mxPoint x="300" y="320" as="targetPoint" />
          </mxGeometry>
        </mxCell>
        <mxCell id="-Kr4DU12q8NC2Dy_L9c7-7" value="&lt;font color=&quot;#007fff&quot;&gt;&amp;nbsp; &amp;nbsp; &amp;nbsp; &amp;nbsp; &amp;nbsp;opentelemetry&lt;br&gt;&amp;nbsp; &amp;nbsp; &amp;nbsp;trace sdk&lt;/font&gt;" style="rounded=0;whiteSpace=wrap;html=1;strokeColor=#007FFF;" vertex="1" parent="1">
          <mxGeometry x="160" y="300" width="110" height="40" as="geometry" />
        </mxCell>
        <mxCell id="-Kr4DU12q8NC2Dy_L9c7-8" value="kubernetes cluster" style="rounded=0;whiteSpace=wrap;html=1;strokeWidth=1;" vertex="1" parent="1">
          <mxGeometry x="120" y="160" width="120" height="20" as="geometry" />
        </mxCell>
        <mxCell id="-Kr4DU12q8NC2Dy_L9c7-29" style="edgeStyle=orthogonalEdgeStyle;rounded=0;orthogonalLoop=1;jettySize=auto;html=1;exitX=1;exitY=0.5;exitDx=0;exitDy=0;entryX=0;entryY=0.5;entryDx=0;entryDy=0;" edge="1" parent="1" source="-Kr4DU12q8NC2Dy_L9c7-10" target="-Kr4DU12q8NC2Dy_L9c7-19">
          <mxGeometry relative="1" as="geometry">
            <Array as="points">
              <mxPoint x="450" y="287" />
              <mxPoint x="450" y="300" />
              <mxPoint x="473" y="300" />
            </Array>
          </mxGeometry>
        </mxCell>
        <mxCell id="-Kr4DU12q8NC2Dy_L9c7-30" style="edgeStyle=orthogonalEdgeStyle;rounded=0;orthogonalLoop=1;jettySize=auto;html=1;exitX=1;exitY=0.5;exitDx=0;exitDy=0;entryX=0;entryY=0.5;entryDx=0;entryDy=0;" edge="1" parent="1" source="-Kr4DU12q8NC2Dy_L9c7-10" target="-Kr4DU12q8NC2Dy_L9c7-28">
          <mxGeometry relative="1" as="geometry">
            <Array as="points">
              <mxPoint x="450" y="288" />
              <mxPoint x="450" y="180" />
              <mxPoint x="466" y="180" />
            </Array>
          </mxGeometry>
        </mxCell>
        <mxCell id="-Kr4DU12q8NC2Dy_L9c7-35" style="edgeStyle=orthogonalEdgeStyle;rounded=0;orthogonalLoop=1;jettySize=auto;html=1;exitX=1;exitY=0.5;exitDx=0;exitDy=0;entryX=0;entryY=0.5;entryDx=0;entryDy=0;" edge="1" parent="1" source="-Kr4DU12q8NC2Dy_L9c7-10" target="-Kr4DU12q8NC2Dy_L9c7-33">
          <mxGeometry relative="1" as="geometry">
            <Array as="points">
              <mxPoint x="450" y="287" />
              <mxPoint x="450" y="355" />
            </Array>
          </mxGeometry>
        </mxCell>
        <mxCell id="-Kr4DU12q8NC2Dy_L9c7-36" style="edgeStyle=orthogonalEdgeStyle;rounded=0;orthogonalLoop=1;jettySize=auto;html=1;exitX=1;exitY=0.5;exitDx=0;exitDy=0;entryX=0;entryY=0.5;entryDx=0;entryDy=0;" edge="1" parent="1" source="-Kr4DU12q8NC2Dy_L9c7-10" target="-Kr4DU12q8NC2Dy_L9c7-11">
          <mxGeometry relative="1" as="geometry">
            <Array as="points">
              <mxPoint x="450" y="288" />
              <mxPoint x="450" y="240" />
            </Array>
          </mxGeometry>
        </mxCell>
        <mxCell id="-Kr4DU12q8NC2Dy_L9c7-10" value="&lt;font color=&quot;#007fff&quot;&gt;opentelemetry&lt;br&gt;collector&lt;/font&gt;" style="rounded=0;whiteSpace=wrap;html=1;strokeColor=#007FFF;" vertex="1" parent="1">
          <mxGeometry x="340" y="270" width="84.79" height="35" as="geometry" />
        </mxCell>
        <mxCell id="-Kr4DU12q8NC2Dy_L9c7-11" value="" style="shape=image;verticalLabelPosition=bottom;labelBackgroundColor=default;verticalAlign=top;aspect=fixed;imageAspect=0;image=https://upload.wikimedia.org/wikipedia/commons/thumb/3/38/Prometheus_software_logo.svg/2066px-Prometheus_software_logo.svg.png;" vertex="1" parent="1">
          <mxGeometry x="469.90999999999997" y="220" width="40.33" height="40" as="geometry" />
        </mxCell>
        <mxCell id="-Kr4DU12q8NC2Dy_L9c7-19" value="" style="shape=image;verticalLabelPosition=bottom;labelBackgroundColor=default;verticalAlign=top;aspect=fixed;imageAspect=0;image=https://www.jaegertracing.io/img/jaeger-icon-color.png;" vertex="1" parent="1">
          <mxGeometry x="473.58" y="279" width="36.66" height="41.77" as="geometry" />
        </mxCell>
        <mxCell id="-Kr4DU12q8NC2Dy_L9c7-23" value="" style="shape=image;verticalLabelPosition=bottom;labelBackgroundColor=default;verticalAlign=top;aspect=fixed;imageAspect=0;image=https://cncf-branding.netlify.app/img/projects/opentelemetry/icon/color/opentelemetry-icon-color.png;" vertex="1" parent="1">
          <mxGeometry x="160" y="245" width="30" height="30" as="geometry" />
        </mxCell>
        <mxCell id="-Kr4DU12q8NC2Dy_L9c7-24" value="" style="shape=image;verticalLabelPosition=bottom;labelBackgroundColor=default;verticalAlign=top;aspect=fixed;imageAspect=0;image=https://cncf-branding.netlify.app/img/projects/opentelemetry/icon/color/opentelemetry-icon-color.png;" vertex="1" parent="1">
          <mxGeometry x="160" y="305" width="30" height="30" as="geometry" />
        </mxCell>
        <mxCell id="-Kr4DU12q8NC2Dy_L9c7-25" value="" style="shape=image;verticalLabelPosition=bottom;labelBackgroundColor=default;verticalAlign=top;aspect=fixed;imageAspect=0;image=https://cncf-branding.netlify.app/img/projects/opentelemetry/icon/color/opentelemetry-icon-color.png;" vertex="1" parent="1">
          <mxGeometry x="367.4" y="240" width="30" height="30" as="geometry" />
        </mxCell>
        <mxCell id="-Kr4DU12q8NC2Dy_L9c7-28" value="" style="shape=image;verticalLabelPosition=bottom;labelBackgroundColor=default;verticalAlign=top;aspect=fixed;imageAspect=0;image=https://upload.wikimedia.org/wikipedia/en/thumb/7/7e/Datadog_logo.svg/1200px-Datadog_logo.svg.png;" vertex="1" parent="1">
          <mxGeometry x="466.32" y="157" width="47.5" height="47.5" as="geometry" />
        </mxCell>
        <mxCell id="-Kr4DU12q8NC2Dy_L9c7-33" value="" style="shape=image;verticalLabelPosition=bottom;labelBackgroundColor=default;verticalAlign=top;aspect=fixed;imageAspect=0;image=https://zipkin.io/public/img/logo_png/zipkin_vertical_grey_gb.png;" vertex="1" parent="1">
          <mxGeometry x="471.77000000000004" y="330" width="42.06" height="50" as="geometry" />
        </mxCell>
      </root>
    </mxGraphModel>
  </diagram>
</mxfile>
